<?xml version="1.0" encoding="UTF-8"?>
<svg width="120px" height="154px" viewBox="0 0 120 154" version="1.1" xmlns="http://www.w3.org/2000/svg" xmlns:xlink="http://www.w3.org/1999/xlink">
    <!-- Generator: Sketch 52.6 (67491) - http://www.bohemiancoding.com/sketch -->
    <title>Group 15 Copy 3</title>
    <desc>Created with Sketch.</desc>
    <defs>
        <polygon id="path-1" points="0.00045 0.199300898 49.85145 0.199300898 49.85145 85.3881472 0.00045 85.3881472"></polygon>
        <polygon id="path-3" points="1.48335 1.1243268 68.99985 1.1243268 68.99985 137.862275 1.48335 137.862275"></polygon>
    </defs>
    <g id="Desktop" stroke="none" stroke-width="1" fill="none" fill-rule="evenodd">
        <g id="00Home_banner1" transform="translate(-150.000000, -161.000000)">
            <g id="Group-15-Copy-3" transform="translate(150.000000, 161.000000)">
                <path d="M34.6455,45.8426762 C36.7545,45.8426762 38.16,44.1913259 38.16,41.715799 C38.16,39.219293 36.7545,37.5694412 34.6455,37.5694412 C32.5575,37.5694412 31.152,39.219293 31.152,41.715799 C31.152,44.1913259 32.5575,45.8426762 34.6455,45.8426762" id="Fill-1" fill="#FFFFFF"></path>
                <polygon id="Fill-3" fill="#FFFFFF" points="35.93745 14.2497376 34.57545 17.9300609 37.30095 17.9300609"></polygon>
                <polygon id="Fill-5" fill="#FFFFFF" points="34.5738 67.1100301 37.2993 67.1100301 35.9373 63.4282082"></polygon>
                <g id="Group-9" transform="translate(0.000000, 0.377046)">
                    <mask id="mask-2" fill="white">
                        <use xlink:href="#path-1"></use>
                    </mask>
                    <g id="Clip-8"></g>
                    <path d="M0.00045,85.3881472 L49.85145,85.3881472 L49.85145,13.4869765 L49.85145,0.198251946 L0.00045,0.198251946 L0.00045,85.3881472 Z M20.52945,73.0165064 L16.95195,73.0165064 L13.88295,67.536481 L12.47745,69.294225 L12.47745,73.0165064 L9.11145,73.0165064 L9.11145,58.8196891 L12.47745,58.8196891 L12.47745,64.4675469 L16.97145,58.8196891 L20.80545,58.8196891 L15.96945,64.8916232 L20.52945,73.0165064 Z M19.36845,45.0844106 L19.36845,48.4275708 L9.21345,48.4275708 L9.21345,34.2277564 L12.57945,34.2277564 L12.57945,45.0844106 L19.36845,45.0844106 Z M39.64395,73.0165064 L38.55795,70.0749451 L33.31845,70.0749451 L32.23095,73.0165064 L28.65345,73.0165064 L34.36095,58.8196891 L37.51395,58.8196891 L43.22145,73.0165064 L39.64395,73.0165064 Z M34.36095,9.64031931 L37.51395,9.64031931 L43.22145,23.8386352 L39.64395,23.8386352 L38.55795,20.8970738 L33.31845,20.8970738 L32.23095,23.8386352 L28.65345,23.8386352 L34.36095,9.64031931 Z M34.64595,34.0599241 C39.11895,34.0599241 41.80245,37.3191681 41.80245,41.3381531 C41.80245,45.3376576 39.11895,48.5969016 34.64595,48.5969016 C30.17295,48.5969016 27.48945,45.3376576 27.48945,41.3381531 C27.48945,37.3191681 30.17295,34.0599241 34.64595,34.0599241 Z M9.18645,9.64031931 L12.12645,9.64031931 L14.95995,16.6653013 L17.79045,9.64031931 L20.73045,9.64031931 L23.28645,23.8386352 L19.92195,23.8386352 L18.60045,15.7122534 L15.81045,23.8386352 L14.08695,23.8386352 L11.31645,15.734731 L9.99645,23.8386352 L6.63045,23.8386352 L9.18645,9.64031931 Z" id="Fill-7" fill="#FFFFFF" mask="url(#mask-2)"></path>
                </g>
                <polygon id="Fill-10" fill="#FFFFFF" points="4.93845 88.358353 49.85295 105.630099 49.85295 88.358353"></polygon>
                <g id="Group-14" transform="translate(51.000000, 15.362076)">
                    <mask id="mask-4" fill="white">
                        <use xlink:href="#path-3"></use>
                    </mask>
                    <g id="Clip-13"></g>
                    <path d="M48.83985,21.1413298 C36.14835,8.5344241 19.37535,1.45549596 1.48335,1.1243268 L1.48335,73.0150079 L1.48335,137.862725 C19.37535,137.531556 36.14835,130.452628 48.83985,117.845722 C61.84035,104.930125 68.99985,87.7572804 68.99985,69.4950244 C68.99985,51.2282729 61.84035,34.0554286 48.83985,21.1413298" id="Fill-12" fill="#FFFFFF" mask="url(#mask-4)"></path>
                </g>
            </g>
        </g>
    </g>
</svg>